<svg id="_x31_px" enable-background="new 0 0 36 36" height="512" viewBox="0 0 36 36" width="512" xmlns="http://www.w3.org/2000/svg"><path d="m4.167 27.623c0-6.917-3.583-11.667-3.583-15s1.916-10.333 17.249-10.333 17.583 9.417 17.583 13.083c.001 17.167-31.249 24.5-31.249 12.25z" fill="#efefef"/><path d="m29.5 33c-.827 0-1.5-.673-1.5-1.5s.673-1.5 1.5-1.5 1.5.673 1.5 1.5-.673 1.5-1.5 1.5zm0-2c-.276 0-.5.224-.5.5s.224.5.5.5.5-.224.5-.5-.224-.5-.5-.5z" fill="#a4afc1"/><path d="m27.5 24.5h-18c-1.657 0-3-1.343-3-3 0-1.657 1.343-3 3-3h18z" fill="#f3f3f1"/><path d="m8.5 12.5h13c1.657 0 3 1.343 3 3 0 1.657-1.343 3-3 3h-13z" fill="#2fdf84"/><path d="m26.5 12.5h-14c-1.657 0-3-1.343-3-3 0-1.657 1.343-3 3-3h14z" fill="#f3f3f1"/><path d="m14.5 21.5v8l3-2 3 2v-8z" fill="#2fdf84"/><path d="m8.5 21.5c0-1.657 1.343-3 3-3h-2c-1.657 0-3 1.343-3 3s1.343 3 3 3h2c-1.657 0-3-1.343-3-3z" fill="#d5dbe1"/><path d="m11.5 9.5c0-1.657 1.343-3 3-3h-2c-1.657 0-3 1.343-3 3s1.343 3 3 3h2c-1.657 0-3-1.343-3-3z" fill="#d5dbe1"/><path d="m8.5 12.5h2v6h-2z" fill="#00b871"/><path d="m16.5 21.5h-2v8l2-1.333z" fill="#00b871"/><path d="m14.5 25h-5c-1.93 0-3.5-1.57-3.5-3.5s1.57-3.5 3.5-3.5h20c.276 0 .5.224.5.5s-.224.5-.5.5h-20c-1.378 0-2.5 1.122-2.5 2.5s1.122 2.5 2.5 2.5h5c.276 0 .5.224.5.5s-.224.5-.5.5z"/><path d="m29.5 25h-9c-.276 0-.5-.224-.5-.5s.224-.5.5-.5h9c.276 0 .5.224.5.5s-.224.5-.5.5z"/><path d="m21.5 19h-15c-.276 0-.5-.224-.5-.5s.224-.5.5-.5h15c1.378 0 2.5-1.122 2.5-2.5s-1.122-2.5-2.5-2.5h-15c-.276 0-.5-.224-.5-.5s.224-.5.5-.5h15c1.93 0 3.5 1.57 3.5 3.5s-1.57 3.5-3.5 3.5z"/><path d="m28.5 13h-16c-1.93 0-3.5-1.57-3.5-3.5s1.57-3.5 3.5-3.5h16c.276 0 .5.224.5.5s-.224.5-.5.5h-16c-1.378 0-2.5 1.122-2.5 2.5s1.122 2.5 2.5 2.5h16c.276 0 .5.224.5.5s-.224.5-.5.5z"/><path d="m27.5 25c-.276 0-.5-.224-.5-.5v-6c0-.276.224-.5.5-.5s.5.224.5.5v6c0 .276-.224.5-.5.5z"/><path d="m26.5 13c-.276 0-.5-.224-.5-.5v-6c0-.276.224-.5.5-.5s.5.224.5.5v6c0 .276-.224.5-.5.5z"/><path d="m8.5 19c-.276 0-.5-.224-.5-.5v-6c0-.276.224-.5.5-.5s.5.224.5.5v6c0 .276-.224.5-.5.5z"/><path d="m27.5 22h-17c-.276 0-.5-.224-.5-.5s.224-.5.5-.5h17c.276 0 .5.224.5.5s-.224.5-.5.5z"/><path d="m20.5 16h-12c-.276 0-.5-.224-.5-.5s.224-.5.5-.5h12c.276 0 .5.224.5.5s-.224.5-.5.5z"/><path d="m26.5 10h-13c-.276 0-.5-.224-.5-.5s.224-.5.5-.5h13c.276 0 .5.224.5.5s-.224.5-.5.5z"/><path d="m20.5 30c-.097 0-.194-.028-.277-.084l-2.723-1.815-2.723 1.815c-.153.102-.351.112-.513.025s-.264-.256-.264-.441v-8c0-.276.224-.5.5-.5s.5.224.5.5v7.066l2.223-1.482c.168-.112.387-.112.555 0l2.222 1.482v-7.066c0-.276.224-.5.5-.5s.5.224.5.5v8c0 .185-.102.354-.264.441-.074.039-.155.059-.236.059z"/></svg>