<?xml version="1.0" encoding="utf-8"?>
<!-- Generator: Adobe Illustrator 22.0.2, SVG Export Plug-In . SVG Version: 6.00 Build 0)  -->
<svg version="1.1" id="Layer_1" xmlns="http://www.w3.org/2000/svg" xmlns:xlink="http://www.w3.org/1999/xlink" x="0px" y="0px"
	 viewBox="0 0 50 50" style="enable-background:new 0 0 50 50;" xml:space="preserve">
<style type="text/css">
	.st0{fill:none;stroke:#000000;stroke-miterlimit:10;}
	.st1{fill:#FFFFFF;stroke:#000000;stroke-width:0.75;stroke-miterlimit:10;}
	.st2{font-family:'RIDIBatang-KSCpc-EUC-H';}
	.st3{font-size:2px;}
	.st4{fill:none;stroke:#000000;stroke-width:2;stroke-miterlimit:10;}
	.st5{fill:#FFFFFF;stroke:#000000;stroke-miterlimit:10;}
	.st6{font-size:4.373px;}
</style>
<path class="st0" d="M25,25"/>
<rect x="13.7" y="13.6" class="st1" width="4.7" height="22.4"/>
<rect x="14.3" y="22.9" transform="matrix(0.3855 -0.9227 0.9227 0.3855 -7.561 39.0576)" class="st1" width="22.4" height="4.7"/>
<rect x="10.7" y="13.6" class="st1" width="3" height="22.4"/>
<rect x="32.1" y="14" class="st1" width="7.2" height="22.4"/>
<text transform="matrix(1 0 0 1 34.9821 17.0021)" class="st2 st3">A</text>
<text transform="matrix(1 0 0 1 35.082 19.0021)" class="st2 st3">B</text>
<text transform="matrix(1 0 0 1 35.082 21.0021)" class="st2 st3">C</text>
<line class="st4" x1="41.2" y1="32.5" x2="47.1" y2="38.4"/>
<circle class="st5" cx="36.3" cy="27.6" r="6.9"/>
<line class="st0" x1="31.1" y1="23.2" x2="31.1" y2="32.1"/>
<line class="st0" x1="41.2" y1="23" x2="41.2" y2="32.5"/>
<text transform="matrix(1 0 0 1 34.4177 24.8905)" class="st2 st6">D</text>
<text transform="matrix(1 0 0 1 34.7177 29.2905)" class="st2 st6">E</text>
<text transform="matrix(1 0 0 1 34.7177 33.5905)" class="st2 st6">F</text>
</svg>
