<svg id="_x31_px" enable-background="new 0 0 36 36" height="512" viewBox="0 0 36 36" width="512" xmlns="http://www.w3.org/2000/svg"><path d="m8.377 4.167c6.917 0 11.667-3.583 15-3.583s10.333 1.916 10.333 17.249-9.417 17.583-13.083 17.583c-17.167.001-24.5-31.249-12.25-31.249z" fill="#efefef"/><path d="m5.5 5.967c-.827 0-1.5-.673-1.5-1.5s.673-1.5 1.5-1.5 1.5.673 1.5 1.5-.673 1.5-1.5 1.5zm0-2c-.275 0-.5.225-.5.5s.225.5.5.5.5-.225.5-.5-.225-.5-.5-.5z" fill="#a4afc1"/><path d="m25.5 6.5h3v9h-3z" fill="#2fdf84"/><path d="m11.5 29.5h-4c-.552 0-1-.448-1-1v-15c0-.552.448-1 1-1h4c.552 0 1 .448 1 1v15c0 .552-.448 1-1 1z" fill="#f3f3f1"/><path d="m17.5 29.5h-4c-.552 0-1-.448-1-1v-21c0-.552.448-1 1-1h4c.552 0 1 .448 1 1v21c0 .552-.448 1-1 1z" fill="#f3f3f1"/><path d="m6.5 22.5h6v3h-6z" fill="#2fdf84"/><path d="m23.5 29.5h-4c-.552 0-1-.448-1-1v-15c0-.552.448-1 1-1h4c.552 0 1 .448 1 1v15c0 .552-.448 1-1 1z" fill="#f3f3f1"/><path d="m18.5 22.5h6v3h-6z" fill="#2fdf84"/><path d="m19.5 10.5h3v5h-3z" fill="#2fdf84"/><path d="m20.5 28.5v-15c0-.552.448-1 1-1h-2c-.552 0-1 .448-1 1v15c0 .552.448 1 1 1h2c-.552 0-1-.448-1-1z" fill="#d5dbe1"/><path d="m25.5 6.5h2v9h-2z" fill="#00b871"/><path d="m19.5 10.5h2v5h-2z" fill="#00b871"/><path d="m8.5 28.5v-15c0-.552.448-1 1-1h-2c-.552 0-1 .448-1 1v15c0 .552.448 1 1 1h2c-.552 0-1-.448-1-1z" fill="#d5dbe1"/><path d="m14.5 28.5v-21c0-.552.448-1 1-1h-2c-.552 0-1 .448-1 1v21c0 .552.448 1 1 1h2c-.552 0-1-.448-1-1z" fill="#d5dbe1"/><path d="m6.5 22.5h2v3h-2z" fill="#00b871"/><path d="m18.5 22.5h2v3h-2z" fill="#00b871"/><path d="m29.5 16h-11c-.276 0-.5-.224-.5-.5s.224-.5.5-.5h11c.276 0 .5.224.5.5s-.224.5-.5.5z"/><path d="m28.5 16c-.276 0-.5-.224-.5-.5v-8.5h-2v8.5c0 .276-.224.5-.5.5s-.5-.224-.5-.5v-9c0-.276.224-.5.5-.5h3c.276 0 .5.224.5.5v9c0 .276-.224.5-.5.5z"/><path d="m22.5 16c-.276 0-.5-.224-.5-.5v-4.5h-2v4.5c0 .276-.224.5-.5.5s-.5-.224-.5-.5v-5c0-.276.224-.5.5-.5h3c.276 0 .5.224.5.5v5c0 .276-.224.5-.5.5z"/><path d="m11.5 30h-4c-.827 0-1.5-.673-1.5-1.5v-15c0-.827.673-1.5 1.5-1.5h4c.827 0 1.5.673 1.5 1.5v15c0 .827-.673 1.5-1.5 1.5zm-4-17c-.275 0-.5.225-.5.5v15c0 .275.225.5.5.5h4c.275 0 .5-.225.5-.5v-15c0-.275-.225-.5-.5-.5z"/><path d="m17.5 30h-4c-.827 0-1.5-.673-1.5-1.5v-21c0-.827.673-1.5 1.5-1.5h4c.827 0 1.5.673 1.5 1.5 0 .276-.224.5-.5.5s-.5-.224-.5-.5c0-.275-.225-.5-.5-.5h-4c-.275 0-.5.225-.5.5v21c0 .275.225.5.5.5h4c.275 0 .5-.225.5-.5v-10c0-.276.224-.5.5-.5s.5.224.5.5v10c0 .827-.673 1.5-1.5 1.5z"/><path d="m23.5 30h-4c-.827 0-1.5-.673-1.5-1.5v-7c0-.276.224-.5.5-.5s.5.224.5.5v7c0 .275.225.5.5.5h4c.275 0 .5-.225.5-.5v-10c0-.276.224-.5.5-.5s.5.224.5.5v10c0 .827-.673 1.5-1.5 1.5z"/><path d="m12.5 26h-6c-.276 0-.5-.224-.5-.5s.224-.5.5-.5h6c.276 0 .5.224.5.5s-.224.5-.5.5z"/><path d="m12.5 23h-6c-.276 0-.5-.224-.5-.5s.224-.5.5-.5h6c.276 0 .5.224.5.5s-.224.5-.5.5z"/><path d="m24.5 23h-6c-.276 0-.5-.224-.5-.5s.224-.5.5-.5h6c.276 0 .5.224.5.5s-.224.5-.5.5z"/><path d="m15.5 26c-.276 0-.5-.224-.5-.5v-16c0-.276.224-.5.5-.5s.5.224.5.5v16c0 .276-.224.5-.5.5z"/><path d="m24.5 26h-6c-.276 0-.5-.224-.5-.5s.224-.5.5-.5h6c.276 0 .5.224.5.5s-.224.5-.5.5z"/></svg>