<svg id="_x31_px" enable-background="new 0 0 36 36" height="512" viewBox="0 0 36 36" width="512" xmlns="http://www.w3.org/2000/svg"><path d="m27.623 4.167c-6.917 0-11.667-3.583-15-3.583s-10.333 1.916-10.333 17.249 9.417 17.583 13.083 17.583c17.167.001 24.5-31.249 12.25-31.249z" fill="#efefef"/><path d="m32.033 5.29c-.827 0-1.5-.673-1.5-1.5s.673-1.5 1.5-1.5 1.5.673 1.5 1.5-.673 1.5-1.5 1.5zm0-2c-.276 0-.5.225-.5.5s.224.5.5.5.5-.225.5-.5-.224-.5-.5-.5z" fill="#a4afc1"/><path d="m11.5 29.5h-4c-.552 0-1-.448-1-1v-15c0-.552.448-1 1-1h4c.552 0 1 .448 1 1v15c0 .552-.448 1-1 1z" fill="#f3f3f1"/><path d="m17.5 29.5h-4c-.552 0-1-.448-1-1v-21c0-.552.448-1 1-1h4c.552 0 1 .448 1 1v21c0 .552-.448 1-1 1z" fill="#f3f3f1"/><path d="m6.5 22.5h6v3h-6z" fill="#2fdf84"/><path d="m23.5 29.5h-4c-.552 0-1-.448-1-1v-15c0-.552.448-1 1-1h4c.552 0 1 .448 1 1v15c0 .552-.448 1-1 1z" fill="#f3f3f1"/><path d="m18.5 22.5h6v3h-6z" fill="#2fdf84"/><circle cx="23" cy="11" fill="#2fdf84" r="4.5"/><g fill="#d5dbe1"><path d="m20.5 28.5v-13.684c-.945-.541-1.453-1.316-1.731-1.988-.163.178-.269.411-.269.672v15c0 .552.448 1 1 1h2c-.552 0-1-.448-1-1z"/><path d="m8.5 28.5v-15c0-.552.448-1 1-1h-2c-.552 0-1 .448-1 1v15c0 .552.448 1 1 1h2c-.552 0-1-.448-1-1z"/><path d="m14.5 28.5v-21c0-.552.448-1 1-1h-2c-.552 0-1 .448-1 1v21c0 .552.448 1 1 1h2c-.552 0-1-.448-1-1z"/></g><path d="m6.5 22.5h2v3h-2z" fill="#00b871"/><path d="m18.5 22.5h2v3h-2z" fill="#00b871"/><path d="m20.5 11c0-2.14 1.498-3.924 3.5-4.38-.323-.073-.655-.12-1-.12-2.485 0-4.5 2.015-4.5 4.5s2.015 4.5 4.5 4.5c.345 0 .677-.047 1-.12-2.002-.456-3.5-2.24-3.5-4.38z" fill="#00b871"/><path d="m23 16c-2.757 0-5-2.243-5-5s2.243-5 5-5 5 2.243 5 5-2.243 5-5 5zm0-9c-2.206 0-4 1.794-4 4s1.794 4 4 4 4-1.794 4-4-1.794-4-4-4z"/><path d="m29.5 18c-.128 0-.256-.049-.354-.146l-3.068-3.068c-.195-.195-.195-.512 0-.707s.512-.195.707 0l3.068 3.068c.195.195.195.512 0 .707-.097.097-.225.146-.353.146z"/><path d="m11.5 30h-4c-.827 0-1.5-.673-1.5-1.5v-15c0-.827.673-1.5 1.5-1.5h4c.827 0 1.5.673 1.5 1.5v15c0 .827-.673 1.5-1.5 1.5zm-4-17c-.276 0-.5.225-.5.5v15c0 .275.224.5.5.5h4c.276 0 .5-.225.5-.5v-15c0-.275-.224-.5-.5-.5z"/><path d="m17.5 30h-4c-.827 0-1.5-.673-1.5-1.5v-21c0-.827.673-1.5 1.5-1.5h3c.276 0 .5.224.5.5s-.224.5-.5.5h-3c-.276 0-.5.225-.5.5v21c0 .275.224.5.5.5h4c.276 0 .5-.225.5-.5v-12c0-.276.224-.5.5-.5s.5.224.5.5v12c0 .827-.673 1.5-1.5 1.5z"/><path d="m23.5 30h-4c-.827 0-1.5-.673-1.5-1.5v-7c0-.276.224-.5.5-.5s.5.224.5.5v7c0 .275.224.5.5.5h4c.276 0 .5-.225.5-.5v-10c0-.276.224-.5.5-.5s.5.224.5.5v10c0 .827-.673 1.5-1.5 1.5z"/><path d="m12.5 26h-6c-.276 0-.5-.224-.5-.5s.224-.5.5-.5h6c.276 0 .5.224.5.5s-.224.5-.5.5z"/><path d="m12.5 23h-6c-.276 0-.5-.224-.5-.5s.224-.5.5-.5h6c.276 0 .5.224.5.5s-.224.5-.5.5z"/><path d="m24.5 23h-6c-.276 0-.5-.224-.5-.5s.224-.5.5-.5h6c.276 0 .5.224.5.5s-.224.5-.5.5z"/><path d="m15.5 26c-.276 0-.5-.224-.5-.5v-11c0-.276.224-.5.5-.5s.5.224.5.5v11c0 .276-.224.5-.5.5z"/><path d="m24.5 26h-6c-.276 0-.5-.224-.5-.5s.224-.5.5-.5h6c.276 0 .5.224.5.5s-.224.5-.5.5z"/></svg>