<svg id="_x31_px" enable-background="new 0 0 36 36" height="512" viewBox="0 0 36 36" width="512" xmlns="http://www.w3.org/2000/svg"><path d="m31.833 27.623c0-6.917 3.583-11.667 3.583-15s-1.916-10.333-17.249-10.333-17.584 9.417-17.584 13.083c0 17.167 31.25 24.5 31.25 12.25z" fill="#efefef"/><g fill="#a4afc1"><path d="m6.033 2.467h2v1h-2z" transform="matrix(.707 -.707 .707 .707 -.038 5.842)"/><path d="m1.967 6.533h2v1h-2z" transform="matrix(.707 -.707 .707 .707 -4.104 4.158)"/><path d="m2.644 1.967h1v2h-1z" transform="matrix(.707 -.707 .707 .707 -1.177 3.092)"/></g><path d="m7.5 23.5h17v-15c0-1.105-.895-2-2-2h-6-7c-1.105 0-2 .895-2 2z" fill="#f3f3f1"/><path d="m18.5 25.5h6v-4h-15c-1.105 0-2 .895-2 2 0 1.105.895 2 2 2h4z" fill="#2fdf84"/><path d="m13.5 23.5v6l2.5-2 2.5 2v-6z" fill="#f3f3f1"/><path d="m20.782 16.795-3.005.53.53-3.005 7.425-7.425c.391-.391.847-.567 1.237-.177l1.237 1.237c.391.391.391 1.024 0 1.414z" fill="#2fdf84"/><path d="m20.308 14.32 7.132-7.132-.47-.47c-.391-.391-.847-.214-1.237.177l-7.425 7.425-.53 3.005 2.064-.364z" fill="#00b871"/><path d="m11.5 6.5h-2c-1.105 0-2 .895-2 2v15h2v-15c0-1.105.895-2 2-2z" fill="#d5dbe1"/><path d="m9.5 23.5c0-1.105.895-2 2-2h-2c-1.105 0-2 .895-2 2s.895 2 2 2h2c-1.105 0-2-.895-2-2z" fill="#00b871"/><path d="m15.5 23.5h-2v6l2-1.6z" fill="#d5dbe1"/><path d="m17.777 17.826c-.132 0-.259-.052-.354-.146-.115-.115-.167-.28-.139-.44l.53-3.005c.018-.101.066-.194.139-.267l7.425-7.424c.781-.781 1.517-.604 1.944-.177l1.237 1.237c.585.585.585 1.536 0 2.121l-7.425 7.425c-.072.073-.166.121-.267.139l-3.005.53c-.027.004-.055.007-.085.007zm3.005-1.031h.01zm-2.01-2.232-.379 2.146 2.146-.378 7.313-7.313c.195-.195.195-.512 0-.707l-1.237-1.237c-.063-.062-.178-.177-.53.177z"/><path d="m7.5 24c-.276 0-.5-.224-.5-.5v-15c0-1.378 1.121-2.5 2.5-2.5h13c.276 0 .5.224.5.5s-.224.5-.5.5h-13c-.827 0-1.5.673-1.5 1.5v15c0 .276-.224.5-.5.5z"/><path d="m13.5 26h-4c-1.379 0-2.5-1.122-2.5-2.5s1.121-2.5 2.5-2.5h14.5v-4.5c0-.276.224-.5.5-.5s.5.224.5.5v5c0 .276-.224.5-.5.5h-15c-.827 0-1.5.673-1.5 1.5s.673 1.5 1.5 1.5h4c.276 0 .5.224.5.5s-.224.5-.5.5z"/><path d="m24.5 26h-6c-.276 0-.5-.224-.5-.5s.224-.5.5-.5h5.5v-3.5c0-.276.224-.5.5-.5s.5.224.5.5v4c0 .276-.224.5-.5.5z"/><path d="m18.5 30c-.111 0-.222-.037-.313-.109l-2.187-1.751-2.188 1.75c-.151.12-.355.143-.529.06-.173-.083-.283-.258-.283-.45v-6c0-.276.224-.5.5-.5s.5.224.5.5v4.959l1.688-1.35c.184-.146.441-.146.625 0l1.687 1.35v-4.959c0-.276.224-.5.5-.5s.5.224.5.5v6c0 .192-.11.367-.283.451-.07.033-.144.049-.217.049z"/><path d="m20.5 24h-9c-.276 0-.5-.224-.5-.5s.224-.5.5-.5h9c.276 0 .5.224.5.5s-.224.5-.5.5z"/></svg>