<svg id="_x31_px" enable-background="new 0 0 36 36" height="512" viewBox="0 0 36 36" width="512" xmlns="http://www.w3.org/2000/svg"><path d="m31.833 8.377c0 6.917 3.583 11.667 3.583 15s-1.916 10.333-17.249 10.333-17.584-9.417-17.584-13.083c0-17.167 31.25-24.5 31.25-12.25z" fill="#efefef"/><g fill="#a4afc1"><path d="m7.033 3.467h2v1h-2z" transform="matrix(.707 -.707 .707 .707 -.452 6.842)"/><path d="m2.967 7.533h2v1h-2z" transform="matrix(.707 -.707 .707 .707 -4.518 5.158)"/><path d="m3.644 2.967h1v2h-1z" transform="matrix(.707 -.707 .707 .707 -1.591 4.092)"/></g><path d="m25.5 20.5h-12c-.552 0-1-.448-1-1v-9c0-.552.448-1 1-1h12c.552 0 1 .448 1 1v9c0 .552-.448 1-1 1z" fill="#f3f3f1"/><path d="m19.5 18.5c-.614-.987-2.26-1.245-3.289-.701-.324.171-.711-.082-.711-.449v-4.543c0-.249.079-.502.257-.676.887-.863 3.299-.893 3.743.368.444-1.262 2.855-1.232 3.743-.368.179.174.257.426.257.676v4.543c0 .367-.387.62-.711.448-1.029-.543-2.675-.285-3.289.702z" fill="#2fdf84"/><path d="m14.5 19.5v-9c0-.552.448-1 1-1h-2c-.552 0-1 .448-1 1v9c0 .552.448 1 1 1h2c-.552 0-1-.448-1-1z" fill="#d5dbe1"/><path d="m17.5 17.35v-4.543c0-.249.079-.502.257-.676.203-.197.491-.345.811-.45-.915-.325-2.209-.136-2.811.45-.179.174-.257.426-.257.676v4.543c0 .367.387.62.711.448.387-.204.86-.295 1.334-.277-.021-.054-.045-.107-.045-.171z" fill="#00b871"/><path d="m19.5 18.75c-.276 0-.5-.224-.5-.5v-5.75c0-.276.224-.5.5-.5s.5.224.5.5v5.75c0 .276-.224.5-.5.5z"/><path d="m19.5 19c-.173 0-.333-.089-.425-.236-.481-.776-1.849-.934-2.63-.523-.303.161-.661.15-.958-.029-.305-.184-.487-.506-.487-.862v-4.543c0-.411.145-.778.409-1.034.662-.643 1.934-.921 3.023-.667.434.102.796.283 1.068.528.272-.245.634-.426 1.068-.528 1.09-.256 2.362.025 3.023.667.264.256.409.623.409 1.034v4.543c0 .355-.182.678-.487.861-.296.18-.654.19-.958.03-.78-.413-2.148-.253-2.63.523-.092.147-.252.236-.425.236zm-2.079-1.975c.749 0 1.527.232 2.079.714.931-.815 2.515-.916 3.522-.382l-.022-4.55c0-.134-.04-.253-.106-.317-.413-.402-1.354-.588-2.097-.411-.252.059-.694.214-.825.587-.141.4-.803.4-.943 0-.131-.373-.573-.528-.825-.587-.744-.175-1.685.009-2.097.411-.067.064-.107.183-.107.317v4.543c.403-.215.905-.325 1.421-.325z"/><path d="m25.5 21h-12c-.827 0-1.5-.673-1.5-1.5v-9c0-.827.673-1.5 1.5-1.5h12c.827 0 1.5.673 1.5 1.5v9c0 .827-.673 1.5-1.5 1.5zm-12-11c-.276 0-.5.224-.5.5v9c0 .276.224.5.5.5h12c.276 0 .5-.224.5-.5v-9c0-.276-.224-.5-.5-.5z"/><path d="m9.5 30c-.276 0-.5-.224-.5-.5v-21c0-1.378 1.122-2.5 2.5-2.5h17c.276 0 .5.224.5.5s-.224.5-.5.5h-17c-.827 0-1.5.673-1.5 1.5v21c0 .276-.224.5-.5.5z"/><path d="m11.5 30h-4c-.276 0-.5-.224-.5-.5s.224-.5.5-.5h4c.276 0 .5.224.5.5s-.224.5-.5.5z"/><path d="m15.5 10c-.276 0-.5-.224-.5-.5v-3c0-.276.224-.5.5-.5s.5.224.5.5v3c0 .276-.224.5-.5.5z"/><path d="m23.5 10c-.276 0-.5-.224-.5-.5v-3c0-.276.224-.5.5-.5s.5.224.5.5v3c0 .276-.224.5-.5.5z"/></svg>