<svg id="_x31_px" enable-background="new 0 0 36 36" height="512" viewBox="0 0 36 36" width="512" xmlns="http://www.w3.org/2000/svg"><path d="m31.833 27.623c0-6.917 3.583-11.667 3.583-15s-1.916-10.333-17.249-10.333-17.584 9.417-17.584 13.083c0 17.167 31.25 24.5 31.25 12.25z" fill="#efefef"/><path d="m3.5 6c-.827 0-1.5-.673-1.5-1.5s.673-1.5 1.5-1.5 1.5.673 1.5 1.5-.673 1.5-1.5 1.5zm0-2c-.276 0-.5.224-.5.5s.224.5.5.5.5-.224.5-.5-.224-.5-.5-.5z" fill="#a4afc1"/><path d="m9.5 8.5h-2c-.55.01-1 .45-1 1v12c0 .55.45 1 1 1h9.5 9.5c.552 0 1-.448 1-1v-12c0-.55-.45-1-1-1h-2z" fill="#2fdf84"/><path d="m17 22.5c-2.04-1.78-4.16-2.43-6.37-2.18-.6.07-1.13-.38-1.13-.98v-11.75c0-.5.37-.93.87-1 2.29-.34 4.51.29 6.63 2.14 2.12-1.85 4.34-2.48 6.63-2.14.5.07.87.5.87 1v11.91 1s-5.042-.625-7.5 2z" fill="#f3f3f1"/><circle cx="23.5" cy="23.5" fill="#f3f3f1" r="6"/><path d="m19.5 23.5c0-2.972 2.163-5.433 5-5.91-.326-.055-.659-.09-1-.09-3.314 0-6 2.686-6 6s2.686 6 6 6c.341 0 .674-.035 1-.09-2.837-.477-5-2.938-5-5.91z" fill="#d5dbe1"/><path d="m8.5 21.5v-12c0-.55.45-.99 1-1h-2c-.55.01-1 .45-1 1v12c0 .55.45 1 1 1h2c-.55 0-1-.45-1-1z" fill="#00b871"/><path d="m12.75 20.312c-.04.004-.08.004-.12.008-.6.07-1.13-.38-1.13-.98v-11.75c0-.5.37-.93.87-1 .046-.007.091-.007.137-.013-.705-.093-1.417-.094-2.137.013-.5.07-.87.5-.87 1v11.75c0 .6.53 1.05 1.13.98.716-.081 1.422-.057 2.12.059z" fill="#d5dbe1"/><path d="m23.5 30c-3.584 0-6.5-2.916-6.5-6.5s2.916-6.5 6.5-6.5 6.5 2.916 6.5 6.5-2.916 6.5-6.5 6.5zm0-12c-3.033 0-5.5 2.467-5.5 5.5s2.467 5.5 5.5 5.5 5.5-2.467 5.5-5.5-2.467-5.5-5.5-5.5z"/><path d="m23.5 26c-.276 0-.5-.224-.5-.5v-.263c0-.96.505-1.881 1.386-2.526.39-.286.614-.728.614-1.211 0-.827-.673-1.5-1.5-1.5s-1.5.673-1.5 1.5c0 .276-.224.5-.5.5s-.5-.224-.5-.5c0-1.378 1.122-2.5 2.5-2.5s2.5 1.122 2.5 2.5c0 .793-.382 1.547-1.023 2.018-.365.267-.977.845-.977 1.719v.263c0 .276-.224.5-.5.5z"/><circle cx="23.5" cy="27.5" r=".5"/><path d="m14.839 21.55c-.074 0-.149-.017-.221-.051-1.228-.606-2.552-.834-3.934-.682-.433.052-.866-.084-1.189-.373-.314-.28-.495-.682-.495-1.104v-11.75c0-.748.559-1.391 1.3-1.495 2.388-.353 4.642.312 6.7 1.982 2.058-1.67 4.309-2.335 6.703-1.981.738.103 1.297.746 1.297 1.494v6.91c0 .276-.224.5-.5.5s-.5-.224-.5-.5v-6.91c0-.252-.189-.47-.44-.505-2.251-.336-4.29.328-6.231 2.022-.188.164-.469.164-.657 0-1.941-1.694-3.976-2.357-6.228-2.022-.255.035-.444.252-.444.505v11.75c0 .139.057.266.16.357.11.097.258.142.412.126 1.575-.175 3.086.087 4.489.778.248.122.349.422.228.67-.088.176-.265.279-.45.279z"/><path d="m27.5 16c-.276 0-.5-.224-.5-.5v-6c0-.276-.224-.5-.5-.5h-2c-.276 0-.5-.224-.5-.5s.224-.5.5-.5h2c.827 0 1.5.673 1.5 1.5v6c0 .276-.224.5-.5.5z"/><path d="m14.5 23h-7c-.827 0-1.5-.673-1.5-1.5v-12c0-.812.669-1.485 1.491-1.5h2.009c.276 0 .5.224.5.5s-.224.5-.5.5h-2c-.271.005-.5.229-.5.5v12c0 .276.224.5.5.5h7c.276 0 .5.224.5.5s-.224.5-.5.5z"/><path d="m17 18c-.276 0-.5-.224-.5-.5v-9c0-.276.224-.5.5-.5s.5.224.5.5v9c0 .276-.224.5-.5.5z"/></svg>