<svg id="_x31_px" enable-background="new 0 0 36 36" height="512" viewBox="0 0 36 36" width="512" xmlns="http://www.w3.org/2000/svg"><path d="m8.377 4.167c6.917 0 11.667-3.583 15-3.583s10.333 1.916 10.333 17.249-9.417 17.583-13.083 17.583c-17.167.001-24.5-31.249-12.25-31.249z" fill="#efefef"/><path d="m31.5 7c-.827 0-1.5-.673-1.5-1.5s.673-1.5 1.5-1.5 1.5.673 1.5 1.5-.673 1.5-1.5 1.5zm0-2c-.275 0-.5.224-.5.5s.225.5.5.5.5-.224.5-.5-.225-.5-.5-.5z" fill="#a4afc1"/><path d="m9.5 8.5h-2c-.55.01-1 .45-1 1v12c0 .55.45 1 1 1h9.5 9.5c.552 0 1-.448 1-1v-12c0-.55-.45-1-1-1h-2z" fill="#2fdf84"/><path d="m17 22.5c-2.04-1.78-4.16-2.43-6.37-2.18-.6.07-1.13-.38-1.13-.98v-11.75c0-.5.37-.93.87-1 2.29-.34 4.51.29 6.63 2.14 2.12-1.85 4.34-2.48 6.63-2.14.5.07.87.5.87 1v11.91 1s-5.042-.625-7.5 2z" fill="#f3f3f1"/><path d="m29.5 22c0 3.706-4.5 7.5-4.5 7.5s-4.5-3.794-4.5-7.5c0-2.485 2.015-4.5 4.5-4.5s4.5 2.015 4.5 4.5z" fill="#f3f3f1"/><circle cx="25" cy="22" fill="#2fdf84" r="1.5"/><path d="m22.5 22c0-2.14 1.498-3.924 3.5-4.38-.323-.073-.655-.12-1-.12-2.485 0-4.5 2.015-4.5 4.5 0 3.706 4.5 7.5 4.5 7.5s.42-.355 1-.949c-1.326-1.357-3.5-3.973-3.5-6.551z" fill="#d5dbe1"/><path d="m25.5 22c0-.443.195-.836.5-1.111-.266-.239-.614-.389-1-.389-.828 0-1.5.672-1.5 1.5s.672 1.5 1.5 1.5c.386 0 .734-.15 1-.389-.305-.275-.5-.668-.5-1.111z" fill="#00b871"/><path d="m8.5 21.5v-12c0-.55.45-.99 1-1h-2c-.55.01-1 .45-1 1v12c0 .55.45 1 1 1h2c-.55 0-1-.45-1-1z" fill="#00b871"/><path d="m12.75 20.312c-.04.004-.08.004-.12.008-.6.07-1.13-.38-1.13-.98v-11.75c0-.5.37-.93.87-1 .046-.007.091-.007.137-.013-.705-.093-1.417-.094-2.137.013-.5.07-.87.5-.87 1v11.75c0 .6.53 1.05 1.13.98.716-.081 1.422-.057 2.12.059z" fill="#d5dbe1"/><path d="m25 30c-.114 0-.229-.039-.322-.118-.192-.161-4.678-3.988-4.678-7.882 0-2.757 2.243-5 5-5s5 2.243 5 5c0 3.894-4.486 7.721-4.678 7.882-.093.079-.208.118-.322.118zm0-12c-2.206 0-4 1.794-4 4 0 2.869 2.997 5.895 4 6.828 1.003-.933 4-3.959 4-6.828 0-2.206-1.794-4-4-4z"/><path d="m25 24c-1.103 0-2-.897-2-2s.897-2 2-2 2 .897 2 2-.897 2-2 2zm0-3c-.552 0-1 .449-1 1s.448 1 1 1 1-.449 1-1-.448-1-1-1z"/><path d="m17 23c-.117 0-.234-.041-.329-.123-1.867-1.631-3.826-2.308-5.984-2.06-.439.048-.869-.086-1.19-.373-.316-.28-.497-.683-.497-1.104v-11.75c0-.748.56-1.391 1.301-1.495 2.387-.353 4.64.311 6.699 1.982 2.058-1.671 4.316-2.333 6.703-1.981.737.103 1.297.746 1.297 1.494v6.91c0 .276-.224.5-.5.5s-.5-.224-.5-.5v-6.91c0-.252-.189-.47-.439-.505-2.253-.337-4.29.328-6.231 2.022-.189.164-.469.164-.658 0-1.941-1.694-3.975-2.353-6.228-2.022-.255.035-.444.252-.444.505v11.75c0 .138.057.265.16.357.11.098.261.142.411.126 2.427-.273 4.693.5 6.758 2.3.208.182.229.498.048.706-.099.113-.237.171-.377.171z"/><path d="m27.5 15c-.276 0-.5-.224-.5-.5v-5c0-.276-.225-.5-.5-.5h-2c-.276 0-.5-.224-.5-.5s.224-.5.5-.5h2c.827 0 1.5.673 1.5 1.5v5c0 .276-.224.5-.5.5z"/><path d="m17.5 23h-10c-.827 0-1.5-.673-1.5-1.5v-12c0-.812.669-1.485 1.491-1.5h2.009c.276 0 .5.224.5.5s-.224.5-.5.5h-2c-.271.005-.5.229-.5.5v12c0 .276.225.5.5.5h10c.276 0 .5.224.5.5s-.224.5-.5.5z"/><path d="m17 23c-.276 0-.5-.224-.5-.5v-14c0-.276.224-.5.5-.5s.5.224.5.5v14c0 .276-.224.5-.5.5z"/></svg>