<svg id="_x31_px" enable-background="new 0 0 36 36" height="512" viewBox="0 0 36 36" width="512" xmlns="http://www.w3.org/2000/svg"><path d="m27.623 4.167c-6.917 0-11.667-3.583-15-3.583s-10.333 1.916-10.333 17.249 9.417 17.583 13.083 17.583c17.167.001 24.5-31.249 12.25-31.249z" fill="#efefef"/><g fill="#a4afc1"><path d="m26.467 2.967h1v2h-1z" transform="matrix(.707 -.707 .707 .707 5.093 20.231)"/><path d="m30.533 7.033h1v2h-1z" transform="matrix(.707 -.707 .707 .707 3.409 24.296)"/><path d="m29.856 3.467h2v1h-2z" transform="matrix(.707 -.707 .707 .707 6.233 22.981)"/></g><path d="m24.5 27.5h-13c-1.105 0-2-.895-2-2v-17c0-1.105.895-2 2-2h13c1.105 0 2 .895 2 2v17c0 1.105-.895 2-2 2z" fill="#f3f3f1"/><path d="m20.5 13.5h3v7h-3z" fill="#2fdf84"/><path d="m11.5 25.5v-17c0-1.105.895-2 2-2h-2c-1.105 0-2 .895-2 2v17c0 1.105.895 2 2 2h2c-1.105 0-2-.895-2-2z" fill="#d5dbe1"/><path d="m20.5 13.5h2v7h-2z" fill="#00b871"/><path d="m24.5 28h-13c-1.378 0-2.5-1.122-2.5-2.5v-17c0-1.378 1.122-2.5 2.5-2.5h13c1.378 0 2.5 1.122 2.5 2.5v17c0 1.378-1.122 2.5-2.5 2.5zm-13-21c-.827 0-1.5.673-1.5 1.5v17c0 .827.673 1.5 1.5 1.5h13c.827 0 1.5-.673 1.5-1.5v-17c0-.827-.673-1.5-1.5-1.5z"/><path d="m26.5 14h-17c-.276 0-.5-.224-.5-.5s.224-.5.5-.5h17c.276 0 .5.224.5.5s-.224.5-.5.5z"/><path d="m26.5 21h-17c-.276 0-.5-.224-.5-.5s.224-.5.5-.5h17c.276 0 .5.224.5.5s-.224.5-.5.5z"/><path d="m12.5 30c-.276 0-.5-.224-.5-.5v-2c0-.276.224-.5.5-.5s.5.224.5.5v2c0 .276-.224.5-.5.5z"/><path d="m23.5 30c-.276 0-.5-.224-.5-.5v-2c0-.276.224-.5.5-.5s.5.224.5.5v2c0 .276-.224.5-.5.5z"/><path d="m12.5 21c-.276 0-.5-.224-.5-.5v-7c0-.276.224-.5.5-.5s.5.224.5.5v7c0 .276-.224.5-.5.5z"/><path d="m20.5 21c-.276 0-.5-.224-.5-.5v-7c0-.276.224-.5.5-.5s.5.224.5.5v7c0 .276-.224.5-.5.5z"/><path d="m23.5 21c-.276 0-.5-.224-.5-.5v-7c0-.276.224-.5.5-.5s.5.224.5.5v7c0 .276-.224.5-.5.5z"/><path d="m19.5 14c-.276 0-.5-.224-.5-.5v-7c0-.276.224-.5.5-.5s.5.224.5.5v7c0 .276-.224.5-.5.5z"/><path d="m16.5 14c-.276 0-.5-.224-.5-.5v-7c0-.276.224-.5.5-.5s.5.224.5.5v7c0 .276-.224.5-.5.5z"/><path d="m16.5 28c-.276 0-.5-.224-.5-.5v-7c0-.276.224-.5.5-.5s.5.224.5.5v7c0 .276-.224.5-.5.5z"/><path d="m19.5 28c-.276 0-.5-.224-.5-.5v-7c0-.276.224-.5.5-.5s.5.224.5.5v7c0 .276-.224.5-.5.5z"/><path d="m22.5 28c-.276 0-.5-.224-.5-.5v-7c0-.276.224-.5.5-.5s.5.224.5.5v7c0 .276-.224.5-.5.5z"/></svg>